<?xml version="1.0" standalone="no"?>
<!DOCTYPE svg PUBLIC "-//W3C//DTD SVG 20010904//EN"
 "http://www.w3.org/TR/2001/REC-SVG-20010904/DTD/svg10.dtd">
<svg version="1.0" xmlns="http://www.w3.org/2000/svg"
 width="512.000000pt" height="512.000000pt" viewBox="0 0 512.000000 512.000000"
 preserveAspectRatio="xMidYMid meet">
<metadata>
Created by potrace 1.14, written by Peter Selinger 2001-2017
</metadata>
<g transform="translate(0.000000,512.000000) scale(0.100000,-0.100000)"
fill="#000000" stroke="none">
<path d="M2 3315 l3 -1430 147 -1 148 -2 0 1432 0 1431 -150 0 -150 0 2 -1430z"/>
<path d="M4837 4742 c-9 -2 -17 -9 -17 -15 0 -15 0 -2464 0 -2683 l0 -161 150
0 150 0 -2 1430 -3 1431 -130 0 c-72 1 -138 0 -148 -2z"/>
<path d="M2422 4724 c-143 -31 -300 -140 -370 -257 -42 -70 -79 -175 -88 -252
-4 -33 -7 -165 -7 -292 l1 -233 -298 0 c-229 0 -299 -3 -302 -12 -3 -7 -4
-137 -2 -288 1 -198 6 -298 17 -355 22 -112 22 -112 52 -199 99 -287 333 -548
613 -682 l72 -35 0 -420 0 -419 -362 -2 -363 -3 -18 -75 c-10 -41 -20 -86 -23
-99 -3 -14 -14 -57 -25 -97 -11 -40 -22 -84 -24 -96 -16 -82 -60 -228 -69
-229 -6 0 -114 -1 -241 -2 l-230 -2 -2 -147 c-1 -108 2 -148 10 -149 47 -4
3591 -3 3596 1 5 3 8 71 8 151 l1 146 -242 0 -241 0 -23 84 c-12 46 -24 95
-27 109 -3 14 -27 111 -53 215 l-48 190 -362 3 -362 2 0 419 0 419 93 46 c275
138 493 388 596 684 52 152 64 246 66 547 1 149 0 276 -3 283 -3 9 -73 12
-302 12 l-297 0 -1 243 c0 247 -2 275 -22 362 -30 134 -138 284 -253 353 -130
79 -316 109 -465 76z m216 -296 c85 -21 147 -70 190 -151 l27 -52 0 -535 0
-535 -23 -45 c-29 -60 -82 -113 -140 -142 -64 -32 -196 -33 -262 -2 -55 26
-113 84 -143 144 -22 45 -22 48 -22 580 0 515 1 537 20 575 68 138 204 200
353 163z m-680 -1126 c1 -180 34 -304 110 -412 112 -157 267 -239 467 -246
186 -6 328 48 451 170 119 119 173 259 177 464 l2 107 149 0 150 0 -1 -90 c-1
-189 -31 -332 -100 -470 -90 -179 -208 -297 -388 -388 -140 -71 -274 -98 -455
-92 -233 7 -428 88 -591 245 -150 145 -241 336 -264 556 -8 69 -12 234 -7 239
3 2 71 4 152 4 l147 0 1 -87z m752 -1644 l0 -378 -150 0 -150 0 0 378 0 378
150 0 150 0 0 -378z m823 -825 c20 -81 33 -149 28 -153 -10 -6 -1999 -5 -2005
1 -3 2 12 70 32 152 l36 147 936 0 937 0 36 -147z"/>
<path d="M603 3313 l2 -678 150 0 149 0 0 675 0 675 -151 3 -151 3 1 -678z"/>
<path d="M4218 3978 c-2 -7 -4 -312 -3 -678 l1 -665 149 0 150 0 1 678 1 677
-147 0 c-110 0 -149 -3 -152 -12z"/>
</g>
</svg>
